# xmcd
#
# Track frame offsets: 
#        150
#        3990
#        24226
#        50199
#        74684
#        91751
#        115636
#        139113
#        166334
#        195884
#        217494
#        241125
#        266768
#        288824
#
# Disc length: 4161 seconds
#
# Revision: 1
# Processed by: cddbd v1.5.2PL0 Copyright (c) Steve Scherf et al.
# Submitted via: ExactAudioCopy v0.99pb4
#
DISCID=c3103f0e
DTITLE=Bruce Springsteen - Bologna, 6-4-05(StevieRay version-Disc 1)
DYEAR=2005
DGENRE=Rock and Roll
TTITLE0=Introduction
TTITLE1=My Beautiful Reward
TTITLE2=Reason To Believe
TTITLE3=Devils and Dust
TTITLE4=Lonesome Day
TTITLE5=Long Time Comin'
TTITLE6=Silver Palomino
TTITLE7=For You
TTITLE8=The River
TTITLE9=State Trooper
TTITLE10=Maria's Bed
TTITLE11=My Father's House
TTITLE12=Reno
TTITLE13=Paradise
EXTD=
EXTT0=
EXTT1=
EXTT2=
EXTT3=
EXTT4=
EXTT5=
EXTT6=
EXTT7=
EXTT8=
EXTT9=
EXTT10=
EXTT11=
EXTT12=
EXTT13=
PLAYORDER=
